# xmcd
#
# Track frame offsets: 
#        150
#        11325
#        31725
#        49687
#        72525
#        89600
#        109455
#        129005
#        138643
#        161193
#        179680
#        192105
#        211568
#        230343
#        244355
#        264680
#        280418
#        303708
#        318358
#
# Disc length: 4436 seconds
#
# Revision: 2
# Processed by: cddbd v1.5.2PL0 Copyright (c) Steve Scherf et al.
# Submitted via: ExactAudioCopy v0.99pb4
#
DISCID=19115213
DTITLE=Romantic Collection - Tet-A-Tet
DYEAR=1900
DGENRE=
TTITLE0=Dean Martin - Besame Mucho
TTITLE1=Tony Braxton - Un-break My Heart
TTITLE2=Nick Cave and PJ Harvey - Henry Lee
TTITLE3=Neneh Cherry and Youssou N`dour - 7 Seconds
TTITLE4=Mourandi Jiann - Space Opera
TTITLE5=Leonard Cochen - The Future
TTITLE6=Tanita Tikaram - And I Think Of You
TTITLE7=Charlie Haden - Every time We Say Goodbye
TTITLE8=Louis Armstrong and Ella Fitzgerald - Summertime
TTITLE9=Agnessa Franklin and Henry Merill - One More Kiss Dear
TTITLE10=Paul Anka - You Are My Destiny
TTITLE11=Birkin and Serge Gainsbourg - Je Taime... Moi Non Plus
TTITLE12=Patricia Kaas - Des Mensonges En Musique
TTITLE13=Fausto Papetti - Adagio Di Albioni
TTITLE14=Al Bano and Romina Power - Sharazan
TTITLE15=Shari Belafonte and Chris Norman - I Want To Be Needed
TTITLE16=Santa Esmeralda - You're My Everything
TTITLE17=Julio Iglesias - Historia De Un Amor
TTITLE18=Royal Philarmonic Orchestra - Besame Mucho
EXTD=
EXTT0=
EXTT1=
EXTT2=
EXTT3=
EXTT4=
EXTT5=
EXTT6=
EXTT7=
EXTT8=
EXTT9=
EXTT10=
EXTT11=
EXTT12=
EXTT13=
EXTT14=
EXTT15=
EXTT16=
EXTT17=
EXTT18=
PLAYORDER=
